<?xml version="1.0" encoding="UTF-8"?>
<svg width="100pt" height="100pt" version="1.1" viewBox="0 0 100 100" xmlns="http://www.w3.org/2000/svg">
 <path d="m93.977 48.977h-6.6094c0.078124-0.039062 0.16016-0.078124 0.23437-0.12109 3.2031-1.7852 4.6289-4.9219 3.8086-8.3828-0.36719-1.5508-1.3555-2.8828-2.7812-3.75-1.4453-0.87891-3.1836-1.1562-4.7734-0.76172-1.7695 0.44141-3.3359 1.8984-3.9023 3.625-0.47266 1.4414-0.20312 2.8711 0.75391 4.0234 1.2578 1.5117 3.5742 1.8398 5.0625 0.71875 1.3633-1.0273 1.7305-3.0312 0.82422-4.4688-0.17578-0.27344-0.44922-0.41406-0.77344-0.41016-0.32812 0.015625-0.63672 0.20703-0.78516 0.49219-0.14062 0.26562-0.12109 0.57422 0.046875 0.83984 0.26953 0.42578 0.31641 0.96875 0.125 1.4531-0.1875 0.47266-0.56641 0.8125-1.043 0.9375-0.69922 0.17969-1.25-0.050781-1.5859-0.27734-0.54688-0.36328-0.92578-0.98438-1.0195-1.6523-0.17578-1.2461 0.42188-2.0898 0.94922-2.5703 0.98047-0.89844 2.5234-1.3008 3.8359-0.99609 2.4219 0.55469 3.8516 2.8203 3.4023 5.3906-0.65234 3.7031-4.7422 5.4609-8.3906 5.9102h-4.9453v-3.8594c0-0.56641-0.46094-1.0234-1.0234-1.0234-0.56641 0-1.0234 0.46094-1.0234 1.0234v3.8594h-32.652l-4.3125-4.3125-4.3125 4.3125h-9.6719v-7.4492l-18.414 8.4727 18.418 8.4766v-7.4492h9.6719l4.3125 4.3125 4.3125-4.3125h32.645v3.8594c0 0.56641 0.46094 1.0234 1.0234 1.0234 0.56641 0 1.0234-0.46094 1.0234-1.0234v-3.8594h5.0508c3.6523 0.45312 7.7422 2.207 8.3945 5.9102 0.45313 2.5703-0.98047 4.8398-3.4023 5.3906-1.3125 0.30078-2.8555-0.10156-3.8359-0.99609-0.52734-0.48438-1.1211-1.3242-0.94922-2.5703 0.09375-0.67188 0.47266-1.2891 1.0195-1.6523 0.33594-0.22656 0.88672-0.45703 1.5859-0.27344 0.47656 0.12109 0.85547 0.46484 1.043 0.9375 0.19141 0.48437 0.14453 1.0273-0.125 1.4531-0.17188 0.26563-0.1875 0.57422-0.046875 0.83984 0.14844 0.28516 0.45703 0.47656 0.78516 0.49219 0.35156 0.03125 0.60156-0.13672 0.77344-0.41016 0.91016-1.4375 0.53906-3.4414-0.82422-4.4688-1.4883-1.1211-3.8047-0.79297-5.0625 0.71875-0.95703 1.1523-1.2266 2.5781-0.75391 4.0234 0.56641 1.7266 2.1328 3.1836 3.9023 3.625 0.47266 0.11719 0.96094 0.17578 1.4492 0.17578 1.1484 0 2.3086-0.32031 3.3203-0.9375 1.4258-0.86719 2.4141-2.1992 2.7812-3.75 0.82031-3.4609-0.60547-6.5938-3.8086-8.3828-0.074219-0.042969-0.15625-0.078125-0.23438-0.11719h6.4961c0.57422-0.011718 1.0352-0.46875 1.0352-1.0352s-0.46094-1.0234-1.0234-1.0234zm-72.852 5.918l-10.637-4.8945 10.637-4.8945z"/>
</svg>
