<?xml version="1.0" encoding="UTF-8"?>
<svg width="100pt" height="100pt" version="1.1" viewBox="0 0 100 100" xmlns="http://www.w3.org/2000/svg">
 <g>
  <path d="m92.672 52.254c-0.26562-0.52344-0.80469-0.85156-1.3906-0.85156h-21.422l-1.8203-2.793h-0.003906c-2.1602-3.1992-5.9531-4.8828-9.7773-4.3477l5.9922-9.5664v-0.003906c0.16797-0.26953 0.25-0.58203 0.23438-0.90234l-0.30078-6.5 0.003906 0.003907c-0.078125-1.1797-0.72266-2.25-1.7305-2.8672-1.0078-0.62109-2.2539-0.71094-3.3398-0.24609l-5.9727 2.5938c-0.28906 0.12891-0.53125 0.33594-0.69922 0.60547l-1.5977 2.5469-36.207-22.977c-1.918-1.2773-4.5078-0.77344-5.8047 1.1289l-1.1133 1.7852c-0.54688 0.96094-0.68359 2.1016-0.37891 3.168 0.30469 1.0625 1.0234 1.957 1.9961 2.4805l37.27 21.188-2.8359 4.5312v-0.003907c-0.57813 0.90625-0.70313 2.0273-0.33203 3.0312h-24.082c-0.57031 0.007813-1.0938 0.32422-1.3633 0.82422-0.27344 0.5-0.25391 1.1094 0.050781 1.5898 0.98828 1.6328 2.0664 3.2148 3.2266 4.7305h-7.8438c-1.7305 0.003906-3.1328 1.3984-3.1484 3.125l-0.015625 2.4062v0.003906c-0.007813 1.5547 1.125 2.8789 2.6602 3.1211 10.398 1.7461 16.473 9.2969 16.336 15.586-0.11328 5.125-4.0938 8.9375-5.8047 10.34-0.33203 0.32031-0.53516 0.75-0.57031 1.207v4.9961c0 0.86328 0.69922 1.5625 1.5625 1.5625h34.125c0.85938 0 1.5625-0.69922 1.5625-1.5625v-4.9961c-0.015625-0.53906-0.30078-1.0312-0.76172-1.3086-2.7383-1.1797-4.4961-3.8906-4.457-6.8672 0.11328-2.6445 1.6719-5.0117 4.0547-6.1562 5.5352-0.44922 10.941-1.8984 15.961-4.2812 7.0039-3.3555 13.059-8.4062 17.613-14.695 0.34375-0.47656 0.39062-1.1055 0.125-1.6289zm-81.781-39.453c-0.49219-0.21875-0.72266-0.79297-0.51562-1.2891l1.1094-1.7734c0.375-0.4375 1.0312-0.50391 1.4883-0.14844l36.219 22.984-0.92188 1.4727zm35.531 30.086c1.5273-2.4297 4.75-7.5898 6.2461-9.9766l2.168-3.4648 5.5273-2.4023v0.003906c0.14062-0.078125 0.3125-0.074219 0.45703 0.003906 0.14063 0.078125 0.23438 0.22266 0.24609 0.38672l0.27734 6.0117-8.3516 13.328c-0.15234 0.23047-0.46094 0.29688-0.69531 0.15625l-5.7188-3.4414c-0.10547-0.054688-0.18359-0.15234-0.21484-0.26953-0.03125-0.11328-0.007812-0.23828 0.058594-0.33594zm0.56641 4.4961 3.6992 2.2266c1.6953 1.0156 3.8906 0.49609 4.957-1.1719l0.66016-1.0547h3.7617-0.003906c2.168-0.003906 4.1836 1.0977 5.3516 2.9219l0.71094 1.0898h-37.84c-2.1562 0.007813-4.168-1.0859-5.332-2.9023l-0.71875-1.1055zm-20.977 41.371h5.0625c-0.24609 0.60547-0.44141 1.2344-0.58203 1.8711h-4.4805zm23.277 1.8711h-15.551c1.0391-3.4258 4.1953-5.7656 7.7734-5.7656 3.582 0 6.7383 2.3398 7.7773 5.7656zm7.7227 0h-4.4844c-0.14453-0.64062-0.33984-1.2656-0.58984-1.8711h5.0703zm-5.2148-11.719c-0.082031 2.4414 0.72266 4.8281 2.2617 6.7227h-4.0312c-2.1172-2.5117-5.2305-3.9648-8.5156-3.9648-3.2852 0-6.4023 1.4531-8.5195 3.9648h-4.7383c9.9805-11.074 0.55859-26.266-14.863-28.672l0.039063-2.4297h14.859c0.019532-0.042969 28.691 0.015625 28.723-0.007813v15.867c-3.0938 1.75-5.0664 4.9688-5.2148 8.5195zm21.797-13.148c-4.2461 1.9961-8.793 3.2812-13.457 3.8008v-15.039c5.7148 0 22 0.011719 27.941 0.007813h-0.003906c-3.9688 4.7344-8.9062 8.5625-14.48 11.23z"/>
  <path d="m42.504 57.297h-13.535c-0.85156 0.011719-1.5391 0.71094-1.5391 1.5625 0 0.85547 0.6875 1.5508 1.5391 1.5625h13.535c0.85156-0.011719 1.5391-0.70703 1.5391-1.5625 0-0.85156-0.6875-1.5508-1.5391-1.5625z"/>
  <path d="m53.352 57.297h-3.8945c-0.85547 0.011719-1.5391 0.70703-1.5391 1.5625s0.68359 1.5508 1.5391 1.5625h3.8945c0.85547-0.011719 1.543-0.70703 1.543-1.5625s-0.6875-1.5508-1.543-1.5625z"/>
  <path d="m71.555 44.254c0 0.86328 0.69922 1.5625 1.5625 1.5625h7.9805c0.85938 0 1.5625-0.69922 1.5625-1.5625 0-0.86328-0.70312-1.5625-1.5625-1.5625h-7.9805c-0.86328 0-1.5625 0.69922-1.5625 1.5625z"/>
  <path d="m71.449 42.465c0.39062 0 0.76953-0.14453 1.0547-0.41016l6.5664-6.0312c0.61328-0.58984 0.64453-1.5586 0.070313-2.1836s-1.543-0.67969-2.1836-0.11719l-6.5664 6.0312c-0.46484 0.4375-0.61328 1.1172-0.38281 1.7109 0.23438 0.59375 0.80078 0.99219 1.4414 1z"/>
 </g>
</svg>
