<?xml version="1.0" encoding="UTF-8"?>
<svg width="100pt" height="100pt" version="1.1" viewBox="0 0 100 100" xmlns="http://www.w3.org/2000/svg">
 <g>
  <path d="m21.297 90.312c0.25 0.25 0.59375 0.40625 1.0312 0.40625h0.015625c0.39062-0.015625 0.75-0.21875 1-0.51562l19.859-25.203c5.0625 3.4531 10.984 5.2812 17.156 5.2812 8.2031 0 15.875-3.1562 21.594-8.8906 11.906-11.906 11.906-31.281 0-43.188s-31.281-11.906-43.188 0c-10.234 10.234-11.734 26.781-3.6094 38.734l-25.5 19.531c-0.3125 0.23438-0.51562 0.59375-0.53125 1-0.03125 0.39062 0.125 0.78125 0.39062 1.0625zm19.422-70.156c5.2344-5.2344 12.219-8.125 19.656-8.125s14.422 2.8906 19.656 8.125c10.844 10.844 10.844 28.469 0 39.312-9.7031 9.7031-25.297 10.812-36.281 2.5781-1.2188-0.90625-2.1875-1.7344-3.0312-2.5781s-1.6719-1.8125-2.5781-3.0312c-8.2344-10.984-7.125-26.578 2.5781-36.281zm-3.9375 39c0.25 0.3125 0.5 0.60938 0.75 0.89062l0.1875 0.20312c0.35938 0.39062 0.70312 0.78125 1.0625 1.1406s0.73438 0.70312 1.2031 1.1094l0.15625 0.14062c0.26562 0.23438 0.54688 0.46875 0.875 0.73438l-2.1562 2.75-4.8281-4.8281zm-4.9688 3.8125 5.3125 5.3125-14.984 19-9.5938-9.5938z"  stroke="currentColor" stroke-width="5.5" stroke-linejoin="round" stroke-linecap="round"/>
  <path d="m26.172 81.469c2.1562-2.1562 2.1562-5.6719 0-7.8281-2.0781-2.0781-5.7344-2.0781-7.8281 0-2.1562 2.1562-2.1562 5.6719 0 7.8281 1.0469 1.0469 2.4375 1.625 3.9062 1.625 1.4844 0 2.875-0.57812 3.9219-1.625zm-5.8906-5.8906c0.53125-0.53125 1.2344-0.8125 1.9844-0.8125s1.4531 0.29688 1.9844 0.8125c1.0938 1.0938 1.0938 2.8594 0 3.9531-0.5 0.5-1.2188 0.78125-1.9844 0.78125-0.75 0-1.4844-0.28125-1.9844-0.78125-1.0938-1.0781-1.0938-2.8594 0-3.9531z"  stroke="currentColor" stroke-width="5" stroke-linejoin="round" stroke-linecap="round"/>
  <path d="m60.484 59.891c5.4062 0 10.484-2.0938 14.281-5.9062 0.53125-0.53125 0.53125-1.4062 0-1.9375s-1.4062-0.53125-1.9375 0c-6.8125 6.8125-17.891 6.8125-24.703 0-0.51562-0.51562-1.4219-0.51562-1.9375 0-0.53125 0.53125-0.53125 1.4062 0 1.9375 3.8281 3.7969 8.8906 5.9062 14.297 5.9062z"  stroke="currentColor" stroke-width="5" stroke-linejoin="round" stroke-linecap="round"/>
  <path d="m60.375 64.797c13.781 0 25-11.219 25-25s-11.219-25-25-25-25 11.219-25 25 11.219 25 25 25zm0-47.25c12.281 0 22.266 9.9844 22.266 22.266s-9.9844 22.25-22.266 22.25-22.25-9.9844-22.25-22.266 9.9844-22.25 22.25-22.25z"  stroke="currentColor" stroke-width="5" stroke-linejoin="round" stroke-linecap="round"/>
 </g>
</svg>
