<?xml version="1.0" encoding="UTF-8"?>
<svg width="100pt" height="100pt" version="1.1" viewBox="0 0 100 100" xmlns="http://www.w3.org/2000/svg">
 <g>
  <path d="m89.418 63.918c-0.39062-1.2227-1.0547-2.3047-1.6953-3.3984-1.7969-3.0742-3.4375-6.2344-5.2109-9.3164-2.0391-3.5469-4.0664-7.1055-6.0977-10.656-0.51172-0.89453-1.0352-1.7852-1.5625-2.6953-0.41406 0.17969-0.72266 0.32031-1.0352 0.44922-1.0312 0.42188-2.0703 0.56641-2.9297-0.30469-0.90234-0.91406-1.5469-2.0352-2.0547-3.207-0.42969-0.98828-0.070312-1.6367 0.93359-2.0703 0.56641-0.24609 1.1094-0.53906 1.7812-0.86719-1.9531-3.6211-3.8438-7.1328-5.7461-10.641-1.4492-2.6758-2.9062-5.3516-4.3789-8.0156-1.2656-2.3008-2.5664-4.582-3.8281-6.8867-0.28516-0.52344-0.67969-0.66016-1.2422-0.68359-1.5977-0.066406-2.9648 0.75-4.3867 1.2266-2.3594 0.78906-4.7188 1.5664-7.082 2.3477-2.3867 0.78906-4.7461 1.6602-7.1289 2.4648-2.6523 0.89453-5.3008 1.8086-7.9609 2.6797-3.7695 1.2344-7.5117 2.5391-11.27 3.8086-0.83203 0.28125-1.6484 0.66797-2.5078 0.79297-1.0977 0.16016-1.7422 0.88281-2.4023 1.6016-0.26172 0.28516-0.35156 0.66016-0.13672 1.1016 1.8164 3.7422 3.625 7.4922 5.4023 11.254 2.0391 4.3086 4.0312 8.6406 6.0742 12.945 2.6562 5.5938 5.3281 11.184 8.0195 16.758 2.2461 4.6562 4.5234 9.3008 6.8047 13.941 1.25 2.5469 2.4336 5.125 3.832 7.5469-1.1641 3.0234-2.5625 5.9727-0.26562 9.0664-1.2344 0.11328-1.5703-0.10547-1.8672-1.0352-0.8125-2.5469-0.26172-4.9297 0.87109-7.2773-1.7383-4.125-3.6797-8.1836-5.6641-12.406-1.4297 2.5742-2.1758 5.1094-2.2227 7.875-0.023438 1.5195 0.16016 2.9023 0.98047 4.2266 0.85156 1.3672 1.5312 2.8438 2.3047 4.2617 0.90625 1.6719 1.8047 3.3516 3.0469 4.8125 0.30469 0.35547 0.62109 0.69531 1.1133 0.71484 1.3555 0.050781 2.6914 0.14062 4.0195-0.41016 10.02-4.1367 19.926-8.5273 29.871-12.836 3.0469-1.3203 6.0859-2.6562 9.1445-3.9531 0.80469-0.34375 1.0156-0.85156 0.66797-1.6094-0.33984-0.75-0.71094-1.4844-1.0781-2.2227-0.29297-0.58203-0.32422-1.2852 0.10156-1.6641 0.53516-0.47656 0.70313-1.0273 0.79297-1.6289 0.11719-0.80469 0.40625-1.4297 1.1562-1.8359 0.44531-0.24219 0.65625-0.72656 0.72656-1.207 0.13672-0.91406 0.50781-1.5742 1.4922-1.7617 0.76172-0.13672 0.81641-0.64844 0.61719-1.2852zm-46.348 12.621c0.46094-1.0391 0.93359-2.0781 1.9375-2.7383 0.21484-0.14062 0.41797-0.29297 0.63281-0.44531-7.5742-15.824-15.078-31.504-22.617-47.254-0.53906 0.19922-0.94922 0.40625-1.3828 0.50781-1.6328 0.375-3.7148-0.97266-4.0703-2.6016-0.375-1.7109 1.207-3.3125 3.0117-3.1445 1.1289 0.10547 1.8164 0.65625 2.2656 1.6484 0.32422 0.72266 0.71094 1.418 1.1602 2.3125 9.9766-3.7422 20.086-7.0156 30.148-10.52-0.27734-0.85547-0.57422-1.707-0.82422-2.5703-0.23828-0.82422 0.18359-1.9023 0.91016-2.3633 0.78906-0.50391 1.5938-0.23438 2.2383 0.21094 0.78516 0.54297 1.2383 1.3945 1.3789 2.3672 0.14453 1-0.17578 1.7891-1.0898 2.2969-0.26953 0.14844-0.52344 0.32031-0.74219 0.45703 7.8164 15.059 16.121 29.801 24.195 44.605 0.47656 0.20703 0.83984-0.019532 1.2188-0.10547 2.4453-0.55469 3.7891 0.74219 3.8594 2.9961 0.058594 1.8516-1.5117 2.4609-3.2148 1.8672-0.72266-0.25-1.1797-0.86719-1.5703-1.5117-0.29297-0.48438-0.59375-0.96484-0.93359-1.5195-10.887 4.2812-21.676 8.7578-32.672 12.906 0.33984 0.99219 0.89453 1.918 0.95703 2.9805 0.058593 1.0391-0.29688 2.0273-1.0508 2.6719-0.6875 0.58984-1.6914 0.875-2.5391 0.25-1.2773-0.94531-1.8828-1.7852-1.207-3.3047zm26.383-7.4492c-0.40234 0.36719-0.87109 0.39844-1.2695-0.26172 0.40625-0.34375 0.57422-1.0781 1.2695-0.69922 0.40234 0.22266 0.26953 0.71484 0 0.96094zm-4.418 2.2695c-0.41016-0.074219-0.90234 0.29688-1.2188-0.30859 0.074219-0.46875 0.33203-0.8125 0.83984-0.6875 0.46484 0.11719 0.52344 0.52734 0.37891 0.99609zm-5.0195 1.8867c-0.3125 0-0.50391-0.14062-0.66406-0.46484 0.24609-0.51172 0.53125-0.89062 1.1602-0.69922 0.32031 0.64062-0.10156 0.89844-0.49609 1.1641zm13.258 6.6836c-3.0664 1.4102-6.1641 2.75-9.3047 3.9961-0.15234 0.058594-0.27734 0.17969-0.41797 0.27344-0.32812 0.11719-0.66016 0.23828-0.98828 0.35547-0.61719 0.58594-1.4297 0.80859-2.1797 1.1328-4.4492 1.9375-8.8086 4.082-13.289 5.9453-0.77344 0.32031-1.4414 0.89844-2.3164 0.98047-0.42578 0.042969-0.82422 0.019531-0.76953-0.57812 3.5508-1.957 7.3164-3.4531 10.98-5.168 5.6523-2.6484 11.438-4.9883 17.277-7.1992 2.1406-0.8125 4.2695-1.6445 6.4727-2.2773-1.7422 1.0195-3.6406 1.6992-5.4648 2.5391zm5.5859-2.5898c0.25391-0.3125 0.59766-0.4375 0.98047-0.48828-0.25391 0.30859-0.59375 0.44922-0.98047 0.48828zm6.3242-9.8008c-0.52344 0.023438-1.0664 0.18359-1.5586 0.37891-1.793 0.71094-3.5352 1.5391-5.2344 2.4609-1.4023 0.75781-2.9297 1.2031-4.4258 1.7383-3.5547 1.2656-7.0312 2.7539-10.598 3.9648-4.0703 1.3789-7.9844 3.1016-11.906 4.8164-1.8438 0.80859-3.4219 2.1094-5.2031 3.0547 3.7852-1.8555 7.4805-3.8945 11.426-5.4102 4.1992-1.6172 8.5703-2.7266 12.746-4.4297-1.1289 0.79297-2.3633 1.3633-3.6172 1.8828-4.7969 1.9844-9.6758 3.7812-14.379 5.9922-2.4609 1.1562-4.9883 2.1992-7.1758 3.8945 0.35156-0.19141 0.70313-0.375 1.0508-0.57031 5.0977-2.8438 10.531-4.9375 15.922-7.1328 6.9883-2.8516 13.953-5.7617 20.926-8.6523 0.46094-0.19141 0.88672-0.46484 1.3906-0.73438 0.24609 0.6875 0.082031 1.0664-0.57422 1.2812-1.8594 0.60547-3.7812 1.0391-5.543 1.9414 1.9844-0.64062 3.9453-1.3555 5.9922-1.8555 0.054687 0.42969-0.22656 0.46094-0.41797 0.51953-3.8203 1.1914-7.4062 3.0234-11.262 4.1094-8.0469 2.2695-15.305 6.3203-22.715 10.023-1.8945 0.94531-3.7773 1.9219-5.5391 3.1172 2.6367-1.3125 5.2656-2.6367 7.9102-3.9336 4.5625-2.2344 8.9727-4.8047 13.73-6.625 2.582-0.98828 5.2422-1.7734 7.8711-2.6523 0.027344 0.070312 0.054688 0.14453 0.082031 0.21484-3.0039 1.2266-6.0078 2.4531-9.0117 3.6836 4.4844-1.5664 8.8203-3.5391 13.438-4.7617-11.164 4.8633-22.531 9.2891-33.156 15.32 12.27-6.6172 25.418-11.266 38.055-17.125 0.23438 0.46875-0.11328 0.90625 0.10156 1.4219-6.2422 2.4062-12.434 4.7773-18.465 7.5273-6.1406 2.7969-12.227 5.707-18.301 8.6484 6.1172-2.625 12.156-5.4258 18.242-8.1211 6.1016-2.7031 12.438-4.8008 18.574-7.4023 0.65234 0.32031 0.40234 0.86719 0.40625 1.3594-1.2891 0.71094-2.7109 0.96484-4.0859 1.3516 0.070313-0.28125 0.41797-0.27344 0.59375-0.52734-0.81641 0.32422-1.5703 0.65234-2.3477 0.92578-7.043 2.4727-13.965 5.2578-20.824 8.1953-3.8398 1.6445-7.4883 3.6914-11.34 5.3164-0.71094 0.30078-1.4297 0.66406-1.9531 1.2852-0.85547 0.10938-0.76562-0.68359-1.0312-1.1133-0.13672-0.22266-0.11328-0.54688-0.16797-0.86328 0.30469-0.23828 0.62109-0.48438 0.93359-0.73047-0.30469 0.078125-0.54688 0.35547-1.0078 0.27344 0.33203-1.5742 0.54688-3.1523 1.3008-4.6133 1.1211-2.1641 3.2266-2.875 5.2578-3.7617 5.8281-2.543 11.836-4.6406 17.699-7.0859 6.0352-2.5156 12.184-4.7578 18.125-7.4922 0.41797-0.19141 0.85156-0.4375 1.3555-0.40625-0.042968 1.1172-0.22656 1.25-1.2891 1.3008zm-7.1289 5.9375c-0.52734 0.42969-1.1445 0.53125-1.7695 0.60156 0.53516-0.37109 1.1367-0.54688 1.7695-0.60156z"/>
  <path d="m43.781 89.289c-0.015625 0.011719-0.027344 0.019532-0.042969 0.03125 0.019531-0.003906 0.035157-0.015624 0.058594-0.019531z"/>
  <path d="m28.816 55.992c-1.4609-3.0117-2.9141-6.0234-4.3789-9.0352-0.37891-0.78125-0.79297-1.5508-1.2734-2.4883-0.21875 0.40625-0.35937 0.62109-0.44922 0.85547-1.0703 2.7852-1.5742 5.6836-1.6484 8.6523-0.023437 1.0586-0.050781 2.1289 0.52734 3.1406 0.81641 1.4258 1.4805 2.9375 2.2227 4.4062 0.59375 1.1797 1.2031 2.3516 1.918 3.7344 0.21484-0.64844 0.34766-1.0703 0.49609-1.4844 0.80859-2.2656 1.3203-4.6484 2.6875-6.6836 0.28516-0.41406 0.070312-0.73828-0.10156-1.0977zm-4.3281 1.3164c-0.65234-0.050782-0.83984-0.53125-0.8125-1.082 0.03125-0.63672 0.16016-1.3633 0.94141-1.3945 0.74219-0.027343 0.85547 0.67969 0.96094 1.1133-0.003906 0.95313-0.39844 1.4141-1.0898 1.3633z"/>
  <path d="m21.773 41.559c-0.95703-1.8672-1.8555-3.7617-2.7578-5.6562-0.78906-1.6523-1.5508-3.3203-2.3359-5-0.38281 0.23047-0.48047 0.57031-0.63672 0.86328-1.1641 2.1797-1.5234 4.5664-1.707 6.9805-0.10156 1.3203-0.26563 2.7266 0.29297 3.9648 1.3242 2.9453 2.7734 5.8359 4.1719 8.7461 0.066407-0.011719 0.12891-0.023437 0.19531-0.039062 0.039062-0.19141 0.058594-0.38672 0.11719-0.57422 0.75391-2.5195 1.1875-5.1641 2.6445-7.4258 0.44531-0.6875 0.35547-1.1953 0.015626-1.8594zm-3.9414 1.625c-0.77344 0.17188-1.0195-0.26172-1.1406-0.85156-0.13672-0.67969-0.12109-1.293 0.60547-1.6758 0.34766-0.18359 0.71094-0.23438 0.91406 0.085938 0.55469 0.88281 0.125 1.6641-0.37891 2.4414z"/>
  <path d="m35.316 69.566c-1.5352-3.1953-3.0508-6.4062-4.5781-9.6055-0.16016-0.33594-0.23047-0.75-0.63672-0.99609-1.5156 2.2773-2.0117 4.8242-2.4961 7.3984-0.27734 1.4805-0.023438 2.7617 0.70312 4.0664 1.1562 2.0781 2.1719 4.2344 3.2812 6.3438 0.33594 0.64062 0.49609 1.3867 1.1055 2.0039 0.35156-2.8984 1.4297-5.4492 2.6953-7.9297 0.24609-0.47656 0.13281-0.84766-0.074219-1.2812zm-3.1328-0.85547c-0.16797 0.44141-0.39453 0.85547-0.60547 1.3086-0.8125 0.10547-1.1484-0.34375-1.2383-0.9375-0.10156-0.69531 0.089844-1.3555 0.74219-1.7539 0.28906-0.17578 0.55078 0.050781 0.74609 0.24219 0.30859 0.30859 0.52734 0.6875 0.35547 1.1406z"/>
  <path d="m15.387 28.109c-0.97266-1.918-2.1406-3.7422-2.8711-5.7812-0.03125-0.085937-0.14453-0.14062-0.22266-0.21484-2.4766 2.9336-2.3828 12.598 0.13672 15.836 0.046874-0.074219 0.10547-0.13672 0.12109-0.21094 0.66406-2.9102 1.332-5.8203 2.875-8.4297 0.25-0.42578 0.16406-0.79688-0.039062-1.1992z"/>
  <path d="m70.129 35.547c0.13281 0.21875 0.26172 0.4375 0.38672 0.66016 1 1.8203 1.0469 1.832 2.957 1.1172 0.61719-0.23047 1.2383-0.64062 1.8789-0.066407 0.51563-0.32422 0.47266-0.73047 0.32813-1.0586-0.52734-1.1914-1.0781-2.375-1.8047-3.4648-0.28125-0.42188-0.65625-0.60156-1.168-0.34375-0.63281 0.32031-1.2852 0.59766-1.9141 0.91406-1.2812 0.65234-1.3945 1.0508-0.66406 2.2422z"/>
  <path d="m62.566 84.297c-4.0352 1.2812-7.7969 3.1992-11.617 4.9805 1.5859-0.51953 3.0781-1.2578 4.6016-1.9297 2.3047-1.0156 4.5938-2.0703 7.0117-2.7969 0.32812-0.11719 0.66016-0.23828 0.98828-0.35547-0.35156-0.17969-0.66797 0-0.98438 0.10156z"/>
  <path d="m79.223 59.762c-1.4336-2.668-2.8203-5.2461-4.1875-7.7969-1.1914-0.074219-2.3125 0.10547-3.3711-0.35547-0.67969-0.29297-1.1445-0.76562-1.2852-1.4727-0.12891-0.63672 0.41406-0.94922 0.81641-1.2734 1.0469-0.83203 1.1836-1.207 0.85156-2.4883-0.13672-0.53516-0.47656-0.96484-0.6875-1.457-0.27734-0.64844-0.71484-0.79688-1.4141-0.74609-1.5898 0.10938-3.0469 0.66016-4.5273 1.1445-2.2539 0.73828-4.5312 1.2852-6.9102 0.66016-2.2695-0.59375-2.8477-1.3125-2.9414-3.6445-0.92188-0.34766-1.8711-0.70703-2.8633-1.082-0.3125 0.75-0.10547 1.3398 0.11328 1.918 1.1055 2.918 2.2266 5.832 3.332 8.7539 0.19922 0.52344 0.54297 1.043 0.26953 1.6797-0.375-0.15625-0.51172-0.45703-0.67578-0.70312-1.8438-2.793-3.6758-5.5938-5.5078-8.3945-0.46094-0.70312-1.0273-1.2695-1.8672-1.5703-1.0742 2.2266-1.8984 4.5508-3.2383 6.6445 0.29688-2.4805 1.4922-4.7148 1.9023-7.1289-0.48438-0.40234-1.0078-0.63281-1.5078-0.70703-0.80859-0.11719-1.8164-0.14453-2.2852 0.57031-1.168 1.7812-2.7031 3.2031-4.1484 4.7266-1.4062 1.4805-1.625 3.1562-0.61328 4.4453 0.76563 0.97656 1.7695 1.6719 2.8555 2.25 1.3281 0.70703 2.6289 1.4414 3.6406 2.6016 0.78516 0.89844 0.98828 1.9531 0.45703 3.0547-0.41406 0.85547-0.41406 1.6836 0.003906 2.5234 0.19922 0.40625 0.38672 0.82031 0.59375 1.2266 0.74219 1.4727 0.39062 2.8125-0.52344 4.0586-0.26172 0.35938-0.62891 0.64062-0.98047 0.99219 0.75781 1.3672 1.1211 2.9102 2.1016 4.4023 10.844-4.2617 21.684-8.5312 32.598-12.832zm-6.6211-5.0664c0.48047 0.44922 0.97656 0.61328 1.6094 0.79688-0.48438 0.6875-0.054688 1.3984-0.14844 2.1953-0.70312-0.375-1-1.1641-1.8516-1.1562 0.23437-0.58984-0.046876-1.207 0.39062-1.8359zm-6.4453-7.0469c-0.45312 0.42187-0.45312 0.42187-0.69922-0.14844 0.34375-0.19141 0.53516-0.085938 0.69922 0.14844zm-1.8789 2.1992c0.64844 0.36719 1.1484 0.74219 1.9336 0.90234-0.83984 0.54297-0.10547 1.207-0.39063 1.8008-0.67187-0.25391-0.86719-1.2539-1.8047-0.87109 0.042969-0.6875 0.39453-1.1523 0.26172-1.832zm-0.29688 5.7266c-0.42578 0.43359-0.63672 0.19141-0.85156-0.26953 0.48047-0.32031 0.6875-0.11719 0.85156 0.26953zm-3.8203-7.5391c-0.47656 0.4375-0.72656 0.25781-0.91797-0.3125 0.55859-0.39844 0.78125-0.18359 0.91797 0.3125zm-10.957 15.852c-0.49219-0.035157-0.76172-0.34375-0.77734-0.82422-0.011719-0.36328 0.21875-0.58984 0.57812-0.58594 0.48828 0.007813 0.76172 0.29688 0.83984 0.76172-0.050781 0.39844-0.21484 0.67578-0.64062 0.64844zm0.10938-11.781c0.80469 0.62109 1.6719 0.89453 2.6289 1.0352-0.60938 1.0898-0.76953 2.1562-0.30859 3.3477-1.0117-0.69141-1.5508-2.0859-3.1602-1.8711 0.61328-0.76172 0.91406-1.5391 0.83984-2.5117zm-1.1914 7.7891c0.40625-0.15234 0.68359-0.058593 0.76562 0.37109 0.035156 0.19531-0.12891 0.35156-0.30078 0.32422-0.35938-0.058594-0.625-0.23828-0.46484-0.69531zm-5.9688-10.531c-0.20312 0.20312-0.42578 0.11328-0.61719 0.003907-0.33984-0.19141-0.57812-0.44141-0.36328-0.89844 0.40625-0.11719 0.76562-0.14844 1.0117 0.28125 0.12109 0.21875 0.16406 0.42188-0.03125 0.61328z"/>
  <path d="m43.766 63.27c-0.89062-1.3164-1.043-2.6602-0.35547-4.1016 0.12109-0.25391 0.1875-0.53516 0.26953-0.80469 0.46484-1.5938 0.066406-2.6172-1.3477-3.4609-0.89844-0.53516-1.8086-1.0547-2.6914-1.6094-2.1797-1.3633-3.2969-4.1172-1.2344-6.3555 0.46094-0.5 0.89062-1.0234 1.3906-1.4844 1-0.91406 1.8789-1.9336 2.7344-3.1953-1.8789 0.52344-3.5977 1-5.3047 1.4727-0.14062-0.39062 0.015626-0.49219 0.20313-0.59766 0.76953-0.42578 1.5195-0.89062 2.3047-1.2852 1.3984-0.69922 2.8125-1.3633 4.2227-2.0352 0.41797-0.19922 0.67188-0.50391 0.69922-0.98047 0.035156-0.51953-0.40234-0.57031-0.71875-0.70703-1.6367-0.70703-3.2852-1.3906-4.9219-2.0938-0.34375-0.14844-0.75391-0.21875-1.0742-0.75781 2.5977 0.19141 4.7539 1.4805 7.1406 1.8711 0.32031-0.44141 0.25781-0.875 0.13281-1.3242-0.45312-1.6406-0.92578-3.2773-1.3203-4.9336-0.17188-0.71875-0.53906-1.4219-0.36328-2.4414 2.4062 2.1602 3.6719 5.1523 6.3398 7.0234 1.0625-1.7812 1.9531-3.4883 2.7734-5.3867-0.57422 0-0.97656 0.050781-1.3594-0.011719-0.74609-0.125-1.4531-0.39453-1.7148-1.1914-0.23828-0.71875 0.054688-1.3125 0.57813-1.8281 0.4375-0.43359 0.97656-0.67969 1.5312-0.90234 1.3438-0.53516 2.6992-1.0352 4.0352-1.5977 0.60938-0.25781 1.2422-0.55859 1.4375-1.3594-0.18359-0.078125-0.33203-0.1875-0.48438-0.20312-1.3359-0.15625-1.9688-1.4141-1.1719-2.7461 0.375-0.62891 0.79688-1.2305 1.2148-1.8711-0.60547-1.1133-1.2148-2.2266-1.8125-3.3281-0.21484 0.011719-0.36719-0.015625-0.49219 0.027343-3.168 1.0742-6.332 2.168-9.5078 3.2266-2.1719 0.72656-3.9844 1.8711-5.0781 3.9844-0.33984 0.65625-0.92578 1.1211-1.6094 1.4688-1.9414 0.97656-3.8828 0.94141-5.8242 0.042969-0.89062-0.41406-1.7891-0.51562-2.7266-0.19922-0.72656 0.24219-1.4844 0.41016-2.1719 0.73828-1.0078 0.48438-2.1914 0.57031-3.1211 1.3281 1.707 4.2266 3.4375 8.3906 5.7305 12.426 1.3867-0.40625 2.7578-0.61328 4.1289-0.80469 2.8008-0.38672 5.5-0.38672 7.8281 1.5781 0.41797 0.35156 0.45312 0.3125 0.57812 0.73047-3.9102-1.8242-7.7148-0.68359-11.727 0.36719 4.4336 8.8125 8.5938 17.57 12.676 26.574 0.46094-1.2109 0.87891-2.2305 0.18359-3.2617zm8.9414-42.559c0.066407-0.17969 0.23047-0.27344 0.39453-0.23047 0.33203 0.085937 0.48828 0.32812 0.46094 0.68359-0.19141 0.26563-0.42188 0.34766-0.69922 0.14063-0.20312-0.15625-0.24219-0.36719-0.15625-0.59375zm-4.4219 5.4844c0.35547-0.15234 0.64062-0.1875 0.73828 0.24609 0.050781 0.23047-0.078126 0.40625-0.29688 0.41797-0.41016 0.015625-0.53125-0.23047-0.44141-0.66406zm-8.9922 2.5078c0.41797-0.125 0.60156 0.23047 0.97266 0.32031-0.26953 0.45703 0.066406 0.89844-0.003906 1.4102-0.56641-0.046875-0.49609-0.91406-1.1719-0.71094 0.082031-0.40625 0.14453-0.72266 0.20312-1.0195zm-7.3359 2.3594c-0.81641-0.63672-1.2969-1.4297-2.3125-1.4102 0.54688-0.52344 0.44922-1.207 0.58594-1.9531 0.69141 0.41016 1.2188 1.0273 2.1133 0.84766-0.84766 0.6875-0.60156 1.5-0.38672 2.5156zm3.8242-0.45312c-0.20312 0.36719-0.47266 0.33984-0.78516 0.003906 0.058594-0.38281 0.17969-0.67188 0.59766-0.55859 0.27734 0.078124 0.30469 0.33984 0.1875 0.55469zm2.2891 8.9297c0.38281 0.0625 0.5625 0.34375 0.58594 0.76563-0.48828 0.50391-0.92969 0.55469-1.3359-0.17188 0.10938-0.44922 0.35938-0.65625 0.75-0.59375z"/>
  <path d="m56.137 22.223c0.19531 0.32812 0.45703 0.26953 0.66797 0.33594 0.94922 0.28906 1.0781 0.65625 0.53516 1.4688-0.33203 0.49219-0.82422 0.77344-1.3164 1.0508-1.2422 0.69922-2.6328 1.0508-3.9453 1.582-0.69141 0.27734-1.3789 0.53516-1.8359 1.1719-0.50781 0.70703-0.30078 1.3125 0.53125 1.5312 0.83984 0.22266 1.6836 0.15625 2.5312 0.054688 1.2344-0.15234 2.4766-0.42578 3.7188-0.085938 0.94922 0.25781 1.7969 0.6875 2.1953 1.6719 0.30859 0.76172-0.19531 1.2617-0.64844 1.707-0.72266 0.71484-1.6758 1.2188-1.9648 2.5352-0.31641-0.75391-0.21094-1.1875 0.16016-1.5586 0.42188-0.42188 0.86719-0.81641 1.3047-1.2227 1.0312-0.96094 0.90625-1.8008-0.37109-2.4297-0.78516-0.38672-1.6289-0.35938-2.4844-0.375-1.2969-0.023437-2.1328 0.25781-2.4219 1.7539-0.30859 1.5977-0.93359 3.1328-1.4258 4.7031 0.76172 0.5 1.5078 0.5 2.2656 0.27344 2.0898-0.62109 4.1758-1.2656 6.2656-1.8906 0.27734-0.082031 0.58594-0.29688 0.79297 0.054688 0.097656 0.26953-0.31641 0.29297-0.15234 0.59375 1.8477 0.058593 3.7461-0.19141 5.7578 0.59375-1.1016-1.9531-2.0664-3.6719-3.043-5.3906-0.70703-1.2461-1.2773-2.5898-2.5352-3.4492-0.42969-0.29688-0.375-0.85156-0.39062-1.3398-0.011719-0.39453 0.10547-0.84375-0.34375-1.125-0.78516 1.2148-0.76172 1.4141 0.23438 2.3203 0.27344 0.25 0.55859 0.48828 0.80078 0.76953 0.60938 0.70703 1.1445 1.4883 0.73438 2.4609-0.78516 1.8672-2.0312 3.3828-3.668 4.75-0.16016-0.71094 0.22266-0.96875 0.51953-1.2539 0.98438-0.95312 1.8398-2.0078 2.5078-3.207 0.37109-0.66797 0.39844-1.2969-0.16016-1.8711-0.41406-0.42578-0.82812-0.85938-1.2617-1.2656-0.79688-0.74219-0.91797-1.3711-0.40234-2.3203 0.27344-0.50391 0.37891-1.0547 0.11719-1.5508-0.51562-0.98828-1.1133-1.9375-1.707-2.9531-0.67188 0.63672-1.5312 0.98047-1.5625 1.9062zm-1.3281 10.324c-0.14453 0.070313-0.31641 0.125-0.46094-0.027344-0.25391-0.26953-0.1875-0.53906-0.011718-0.85156 0.34375-0.09375 0.55078 0.03125 0.74219 0.17188 0.125 0.32812 0.015625 0.5625-0.26953 0.70703z"/>
  <path d="m64.703 38.219c-2.4219 0.24219-4.8203 0.26953-6.3906-2.1133-0.49219 0.11719-0.60156 0.34375-0.29688 0.71875 0.19531 0.23828 0.41406 0.46484 0.60547 0.70703 1.0586 1.3438 0.16406 3.6172-1.5391 3.9141-0.078125 0.015626-0.17578-0.10156-0.26562-0.15625 0.52734-0.84766 1.7188-1.1133 1.8281-2.1914 0.11719-1.1484-0.85938-1.6797-1.4609-2.4219-0.96484 0.48047-1.8203 0.99609-2.7422 1.3477-1.0273 0.39453-1.3359 1.1094-1.3008 2.0938 2.5156 1.1875 5 2.3633 7.4844 3.5352-1.6016 0.23047-2.8516-0.8125-4.3164-0.95312-0.41406 1.3125 0.80078 2.75 2.1992 2.6445 1.4414-0.10938 2.8516-0.375 4.2461-0.79688 2.3711-0.71875 4.6055-1.9336 7.3086-1.9336-0.82031-1.5156-1.582-2.9141-2.332-4.2969-1.0508-0.089844-2.0234-0.19922-3.0273-0.097656zm-2.6406 0.96875c0.53906-0.43359 0.83594-0.30078 0.97266 0.35547-0.51953 0.39844-0.79688 0.21094-0.97266-0.35547z"/>
  <path d="m40.328 20c-2.7031 0.86719-5.3828 1.7305-8.2656 2.6562 4.3438 1.9922 6.5469 1.1602 8.2656-2.6562z"/>
  <path d="m20.203 22.062c-0.625-0.11328-1.082 0.13672-1.4922 0.59766-0.42188 0.47266-0.33984 0.96484-0.078126 1.4141 0.96094 1.6758 2.0312 1.9023 3.9805 1.0352-0.15234-0.47266-0.26562-0.97266-0.47656-1.4258-0.38281-0.83203-0.98047-1.4492-1.9336-1.6211z"/>
  <path d="m45.418 63.324c-0.64062-1.3086-1.1211-2.6406-0.45312-4.1445 0.38672-0.87109 0.089844-1.7344-0.62891-2.668 0.054687 1.2148-0.21094 2.1523-0.47656 3.0977-0.32031 1.1328-0.45703 2.2617 0.41797 3.2969 0.40625 0.47656 0.5 1.1289 0.36719 1.7773-0.14453 0.69141-0.25781 1.3945-0.58984 2.0312-0.15234 0.29297-0.25781 0.57812 0.15625 0.75391 1.5703-1.0234 1.9805-2.5625 1.207-4.1445z"/>
  <path d="m46.891 77.645c0.3125-1.2266-0.37109-2.168-0.82422-3.2695-1.1289 0.59375-1.7305 1.4883-2.1367 2.5-0.34766 0.86328 0.074218 1.6172 0.93359 1.8711 0.88281 0.26172 1.8164-0.26562 2.0273-1.1016z"/>
  <path d="m83.922 62.977c0.56641-0.53906 0.54688-1.5078-0.046875-2.1523-0.67969-0.74219-1.6055-0.80859-2.7461-0.16797 0.11719 0.50391 0.63672 1.6484 0.83594 1.8828 0.57422 0.66016 1.5 0.86719 1.957 0.4375z"/>
  <path d="m55.438 13.977c0.27344-0.14844 0.49219-0.23047 0.66406-0.36719 0.54297-0.42578 1.2656-0.78125 0.88672-1.6875-0.47656-1.125-1.3633-1.6914-2.2812-1.4961-0.38672 0.082031-0.71875 0.32812-0.53125 0.69141 0.46875 0.90234 0.64453 1.9336 1.2617 2.8594z"/>
  <path d="m71.594 50.625c0.88281 0.60547 1.8945 0.64062 3.0195 0.73047-0.38672-1.25-1.0039-2.2734-1.6445-3.4375-0.37109 0.67578-0.875 1.0625-1.4297 1.4141-0.56641 0.35938-0.51172 0.90234 0.054688 1.293z"/>
  <path d="m59.953 45.746c3.7266 0.28516 6.8477-2.0312 10.422-2.3867-3.707-0.22266-6.8438 2.0391-10.422 2.3867z"/>
  <path d="m30.441 38.766c0.070313 0.23047 0.10547 0.48828 0.40234 0.66797 2.6211-0.78906 5.3047-1.4492 8.1016-1.4453-1.6406-0.55078-8.2148 0.078125-8.5039 0.77734z"/>
  <path d="m65.891 36.465c-1.1016-0.78906-6.2656-1.1797-6.9141-0.55078 2.2266 1.2656 4.625 0.23047 6.9141 0.55078z"/>
  <path d="m59.578 36.805c1.1211 0.86719 2.3906 1.1797 3.7734 1.0312 1.2578-0.13281 2.5078-0.42969 3.8047-0.27344-2.4258-1.2227-5.0977 0.039062-7.5781-0.75781z"/>
  <path d="m56.969 19.242c-0.60938 0.61719-1.1875 1.2461-1.3008 2.2305 1.9492-1.6367 1.9492-1.6367 1.3008-2.2305z"/>
  <path d="m48.469 85.121c-1.4141 0.51562-2.7695 1.1406-3.9648 2.0625 1.3242-0.6875 2.6445-1.375 3.9648-2.0625z"/>
  <path d="m44.391 87.266c0.039063-0.03125 0.078125-0.054687 0.11719-0.082031-0.042968 0.023437-0.089843 0.046875-0.13281 0.070312z"/>
  <path d="m43.859 89.262c1.0625-0.30469 1.918-0.99219 2.8477-1.5391-0.96875 0.47266-1.9727 0.88672-2.8477 1.5391z"/>
  <path d="m43.781 89.289 0.015625 0.011719c0.019531-0.015625 0.039063-0.027343 0.0625-0.039062-0.027344 0.007812-0.050781 0.019531-0.078125 0.027343z"/>
  <path d="m43.895 87.582c0.13281-0.089843 0.26172-0.17969 0.39453-0.26953-0.14453 0.066406-0.28906 0.13281-0.43359 0.19922 0.007812 0.023437 0.023437 0.046875 0.039062 0.070312z"/>
  <path d="m44.391 87.266-0.015625-0.011719c-0.027344 0.019532-0.058594 0.039063-0.089844 0.058594 0.035156-0.015625 0.070313-0.03125 0.10547-0.046875z"/>
 </g>
</svg>
