<?xml version="1.0" encoding="UTF-8"?>
<svg width="100pt" height="100pt" version="1.1" viewBox="0 0 100 100" xmlns="http://www.w3.org/2000/svg">
 <g>
  <path d="m44.652 63.195h10.699c-1.4492-18.398-3.8438-45.438-5.3516-55.602-1.5078 10.164-3.9023 37.203-5.3477 55.602z"/>
  <path d="m44.32 86.727c0 3.1328 2.5508 5.6797 5.6797 5.6797 3.1328 0 5.6797-2.5469 5.6797-5.6797 0-2.0352-1.0898-3.8906-2.8438-4.9062h-5.6758c-1.7539 1.0156-2.8398 2.8672-2.8398 4.9062z"/>
  <path d="m47.965 72.086h4.0703v7.5117h-4.0703z"/>
  <path d="m61.07 65.418h-22.137c-3.8594 0-6.9961 3.1367-6.9961 6.9961 0 1.2266 0.99609 2.2227 2.2227 2.2227 1.2266 0 2.2227-0.99609 2.2227-2.2227 0-1.3828 1.168-2.5508 2.5508-2.5508h22.141c1.3828 0 2.5508 1.168 2.5508 2.5508 0 1.2266 0.99609 2.2227 2.2227 2.2227 1.2266 0 2.2227-0.99609 2.2227-2.2227-0.003906-3.8555-3.1445-6.9961-7-6.9961z"/>
 </g>
</svg>
