<?xml version="1.0" encoding="UTF-8"?>
<svg width="100pt" height="100pt" version="1.1" viewBox="0 0 100 100" xmlns="http://www.w3.org/2000/svg">
 <path d="m89.812 4.6719c-0.007812 0.003906-0.019531 0.003906-0.027344 0.007813l-15.715 0.56641c-0.21094 0.007812-0.40625 0.097656-0.55078 0.25l-23.523 25.859-23.516-25.859c-0.14453-0.15625-0.34375-0.24609-0.55469-0.25l-15.711-0.56641c-0.011719 0-0.027344 0.003906-0.039063 0.003906-0.058593 0-0.12109 0.007812-0.17969 0.023437-0.027344 0.007813-0.054688 0.015625-0.082032 0.027344-0.046874 0.015625-0.097656 0.039063-0.14062 0.070313-0.027344 0.015624-0.054688 0.035156-0.078126 0.054687-0.023437 0.015625-0.042968 0.027344-0.0625 0.042969-0.015624 0.019531-0.027343 0.039062-0.042968 0.058594-0.023438 0.03125-0.046875 0.058593-0.066406 0.089843-0.019532 0.039063-0.039063 0.078125-0.054688 0.11719-0.019531 0.039062-0.03125 0.078125-0.042969 0.12109-0.007812 0.039063-0.011719 0.078126-0.015625 0.11719-0.003906 0.027344-0.007812 0.054688-0.007812 0.082031l0.57031 15.723v-0.003907c0.007813 0.21094 0.10156 0.40625 0.25391 0.55078l26.523 24.164-10.875 11.957-1.3867-1.3867c-0.92969-0.92969-2.1484-1.3945-3.375-1.3945-1.2227 0-2.4492 0.46484-3.3789 1.3945l-2.8125 2.8203-0.007813-0.007812c-0.30078 0.30469-0.30078 0.79687 0 1.1016l6.0742 6.0781-11.852 11.855c-2.3867-0.17969-4.832 0.64062-6.6523 2.4609-3.3164 3.3164-3.3164 8.7148 0 12.031 3.3164 3.3164 8.7109 3.3164 12.027 0 1.8203-1.8203 2.6406-4.2734 2.4609-6.6602l4.2695-4.2734v0.003906c0.007812-0.003906 0.011718-0.007813 0.015624-0.011719 0.011719-0.011719 0.023438-0.023437 0.03125-0.035156l4.1875-4.1875c0.011719-0.007813 0.023438-0.019531 0.035157-0.027344 0.015625-0.015625 0.027343-0.035156 0.042969-0.050781l3.2656-3.2656 6.0742 6.0781c0.14453 0.14844 0.34375 0.23047 0.55078 0.23047 0.21094 0 0.41016-0.082031 0.55469-0.23047l2.8203-2.8203c1.8594-1.8594 1.8594-4.8945 0-6.7539l-1.3906-1.3945 12.57-11.449 12.57 11.449-1.3906 1.3945c-1.8594 1.8594-1.8594 4.8945 0 6.7539l2.8203 2.8203c0.30469 0.30078 0.79688 0.30078 1.1016 0l6.0742-6.082 3.2617 3.2656h0.003906c0.011719 0.019531 0.027344 0.035156 0.042969 0.054687 0.015625 0.015625 0.035156 0.03125 0.054687 0.042969l8.4883 8.4961c-0.17969 2.3906 0.64062 4.8398 2.4609 6.6602 3.3164 3.3164 8.7148 3.3125 12.031-0.003906 3.3164-3.3164 3.3164-8.7148 0-12.031-1.8203-1.8242-4.2695-2.6445-6.6602-2.4609l-4.2539-4.2578c-0.011719-0.011719-0.023438-0.023438-0.035157-0.03125l-7.5625-7.5703 6.0742-6.0781h0.003907c0.30078-0.30469 0.30078-0.79688 0-1.1016l-2.8203-2.8203c-0.92969-0.92969-2.1484-1.3945-3.375-1.3945-1.2227 0-2.4453 0.46484-3.375 1.3945l-1.3867 1.3867-10.879-11.957 26.523-24.16v0.003906c0.15234-0.14453 0.24609-0.33984 0.25391-0.55078l0.56641-15.66h-0.003906c0.027344-0.23828-0.054688-0.47266-0.22266-0.64453-0.011719-0.003906-0.023438-0.011719-0.03125-0.019532-0.058594-0.054687-0.125-0.097656-0.19531-0.12891-0.019531-0.011718-0.042969-0.019531-0.066406-0.027344-0.066407-0.023437-0.14062-0.039062-0.21094-0.042968-0.019531-0.003906-0.035156-0.007813-0.050781-0.011719zm-77.672 1.6328 13.402 0.49219 23.398 25.719-5.0547 5.5586zm75.715 0-56.762 56.797-4.1172-4.1172 17.484-19.219 0.003906-0.003906c0.007812-0.003907 0.011718-0.011719 0.015625-0.015625l29.973-32.949zm-76.82 1.1094 31.797 31.816-5.0312 5.5312-26.281-23.941zm77.93 0-0.48828 13.406-26.844 24.453v0.003906c-0.007812 0-0.011718 0.003906-0.015624 0.007812-0.003907 0.003906-0.007813 0.007813-0.011719 0.011719l-25.285 23.035-4.1172-4.1211zm-26.871 39.555 10.926 12.012-4.1172 4.1211-11.684-11.691zm-6.0352 5.4961 11.738 11.742-4.1211 4.1211-12.516-11.402zm-34.949 4.1758c0.82031 0 1.6367 0.31641 2.2656 0.94531l7.1641 7.1641v0.003906s0.003907 0.003906 0.003907 0.007813c0.003906 0.003906 0.007812 0.003906 0.011719 0.007812l5.1914 5.1953h0.003906l1.9648 1.9648c1.2617 1.2617 1.2617 3.2891 0 4.5508l-2.2656 2.2656-6.0742-6.0781-6.7305-6.7383v0.003906c-0.007812-0.003906-0.011719-0.007813-0.015625-0.011719l-6.0586-6.0625 2.2656-2.2734c0.62891-0.62891 1.4531-0.94531 2.2734-0.94531zm57.781 0c0.82031 0 1.6406 0.31641 2.2734 0.94531l2.2656 2.2734-6.043 6.0469c-0.011719 0.007812-0.023438 0.015625-0.035157 0.027344l-6.7227 6.7383-0.003906-0.003906v0.003906l-6.0703 6.0742-2.2656-2.2656c-1.2617-1.2617-1.2617-3.2891 0-4.5508l1.9648-1.9688 10.398-10.402c0.015625-0.015625 0.035156-0.035156 0.050781-0.054688l1.918-1.918c0.62891-0.62891 1.4531-0.94531 2.2734-0.94531zm-56.801 10.953 5.6289 5.6289-2.7578 2.7617-5.625-5.6289zm55.816 0 2.7578 2.7578-5.625 5.625-2.7539-2.7539zm-59.676 3.8633 5.625 5.6289-3.1484 3.1484-5.625-5.6289zm63.539 0 3.1445 3.1445-5.6211 5.6328-3.1484-3.1484zm4.25 4.2539 2.9766 2.9805c-1.2852 0.39453-2.4961 1.0977-3.5078 2.1133-1.0156 1.0156-1.7188 2.2305-2.1133 3.5156l-2.9805-2.9805zm-72.039 0 5.625 5.6289-2.9805 2.9805c-0.39453-1.2891-1.0977-2.5-2.1133-3.5156-1.0156-1.0156-2.2227-1.7188-3.5078-2.1133zm-5.4805 4.1562c1.7734 0 3.5508 0.67969 4.9102 2.0391 2.7188 2.7188 2.7188 7.1055 0 9.8242s-7.1016 2.7227-9.8203 0.003906-2.7148-7.1055 0.003906-9.8281c1.3594-1.3594 3.1328-2.0391 4.9062-2.0391zm83.004 0c1.7734 0 3.5508 0.67969 4.9102 2.0391 2.7188 2.7188 2.7188 7.1055 0 9.8242s-7.1016 2.7227-9.8203 0.003906-2.7148-7.1055 0.003906-9.8281c1.3594-1.3594 3.1328-2.0391 4.9102-2.0391z"/>
</svg>
