<?xml version="1.0" encoding="UTF-8"?>
<svg width="100pt" height="100pt" version="1.1" viewBox="0 0 100 100" xmlns="http://www.w3.org/2000/svg">
 <g>
  <path d="m68.406 79.75c-0.86328 0-1.5625-0.69922-1.5625-1.5625v-18.605c0-0.86328 0.69922-1.5625 1.5625-1.5625s1.5625 0.69922 1.5625 1.5625v18.605c0 0.41406-0.16406 0.8125-0.45703 1.1055s-0.69141 0.45703-1.1055 0.45703z"/>
  <path d="m68.406 39.93c-0.86328 0-1.5625-0.70313-1.5625-1.5625v-12.586c-0.003906-3.3594-2.7266-6.082-6.0859-6.0859h-49.57c-0.85938 0-1.5625-0.69922-1.5625-1.5625 0-0.85937 0.70312-1.5625 1.5625-1.5625h49.57c5.0859 0.007813 9.2031 4.125 9.2109 9.2109v12.59c-0.003906 0.85938-0.70312 1.5586-1.5625 1.5586z"/>
  <path d="m16.324 76.422c-0.86328 0-1.5625-0.70312-1.5625-1.5625v-43.055c0-0.85938 0.69922-1.5625 1.5625-1.5625s1.5625 0.70312 1.5625 1.5625v43.055c0 0.41406-0.16406 0.80859-0.45703 1.1016-0.29297 0.29297-0.69141 0.46094-1.1055 0.46094z"/>
  <path d="m16.324 33.367h-10.27c-0.86328 0-1.5625-0.69922-1.5625-1.5625v-8.5391c0-3.6992 3-6.6992 6.6953-6.6992 3.6992 0 6.6992 3 6.6992 6.6992v8.543-0.003906c0 0.41797-0.16406 0.8125-0.45703 1.1055-0.29297 0.29297-0.69141 0.45703-1.1055 0.45703zm-8.707-3.125h7.1445v-6.9766c0-1.9766-1.5977-3.5742-3.5742-3.5742-1.9727 0-3.5703 1.5977-3.5703 3.5742z"/>
  <path d="m71.41 90.098h-49.949c-3.6992-0.003906-6.6953-3-6.6992-6.6992v-8.5391c0-0.86328 0.69922-1.5625 1.5625-1.5625s1.5625 0.69922 1.5625 1.5625v8.5391c-0.023438 0.96094 0.34375 1.8906 1.0156 2.5781 0.67188 0.69141 1.5938 1.0781 2.5547 1.0781 0.96094 0 1.8828-0.38672 2.5547-1.0781 0.67188-0.6875 1.0391-1.6172 1.0195-2.5781v-5.2109c0-0.86328 0.69922-1.5625 1.5625-1.5625h50.258c0.41797 0 0.8125 0.16406 1.1055 0.45703s0.45703 0.69141 0.45703 1.1055v4.9023c0 3.8672-3.1367 7.0039-7.0039 7.0078zm-44.289-3.125h44.289c2.1445-0.003906 3.8789-1.7383 3.8789-3.8828v-3.3398h-47.133v3.6484c0 1.2656-0.35938 2.5039-1.0352 3.5742z"/>
  <path d="m62.414 69.43h-40.102c-0.85938 0-1.5625-0.69922-1.5625-1.5625 0-0.85938 0.70312-1.5625 1.5625-1.5625h40.102c0.86328 0 1.5625 0.70312 1.5625 1.5625 0 0.86328-0.69922 1.5625-1.5625 1.5625z"/>
  <path d="m60.844 59.57h-38.531c-0.85938 0-1.5625-0.69922-1.5625-1.5625 0-0.86328 0.70312-1.5625 1.5625-1.5625h38.531c0.85938 0 1.5625 0.69922 1.5625 1.5625 0 0.86328-0.70312 1.5625-1.5625 1.5625z"/>
  <path d="m57.695 49.719h-35.383c-0.85938 0-1.5625-0.69922-1.5625-1.5625 0-0.85938 0.70312-1.5625 1.5625-1.5625h35.383c0.86328 0 1.5625 0.70312 1.5625 1.5625 0 0.86328-0.69922 1.5625-1.5625 1.5625z"/>
  <path d="m49.828 39.867h-27.516c-0.85938 0-1.5625-0.70313-1.5625-1.5625 0-0.86328 0.70312-1.5625 1.5625-1.5625h27.516c0.86328 0 1.5625 0.69922 1.5625 1.5625 0 0.85937-0.69922 1.5625-1.5625 1.5625z"/>
  <path d="m41.961 30.008h-19.648c-0.85938 0-1.5625-0.69922-1.5625-1.5625 0-0.85937 0.70312-1.5625 1.5625-1.5625h19.648c0.86328 0 1.5625 0.70313 1.5625 1.5625 0 0.86328-0.69922 1.5625-1.5625 1.5625z"/>
  <path d="m66.336 62.16c-0.76953 0-1.4258-0.5625-1.5391-1.3242-0.085937-0.55859-2.0312-13.832 3.5625-26.77 0.17188-0.40234 0.50781-0.71094 0.92188-0.85547l3.4414-1.1953-0.80859-3.5547c-0.097656-0.42578-0.011718-0.87109 0.23438-1.2344 7.8906-11.445 20.25-16.961 20.773-17.188h0.003906c0.44922-0.19531 0.96875-0.17187 1.4023 0.066407s0.73047 0.66406 0.80078 1.1523c0.085938 0.60938 0.83594 6.1172-0.046875 13.34h0.003907c-0.070313 0.55469-0.42188 1.0273-0.93359 1.2461l-2.5039 1.0781 1.6797 5.2266h0.003906c0.09375 0.30078 0.097657 0.625 0.011719 0.92578-0.86719 2.9297-2.0469 5.7539-3.5156 8.4297-1.625 2.8945-3.5781 5.5938-5.8203 8.0352-0.1875 0.20313-0.41797 0.35547-0.67969 0.4375l-4.0781 1.3047 0.046875 2.0156v0.003906c0.011719 0.48047-0.19531 0.9375-0.56641 1.2422-6.0547 5.0039-11.547 7.3945-11.781 7.4922l0.003906 0.003906c-0.19531 0.078126-0.40625 0.12109-0.61719 0.12109zm4.625-26.223c-3.6875 8.9453-3.5781 18.18-3.2891 22.266 2.9961-1.5977 5.8359-3.4727 8.4883-5.5938l-0.058594-2.4141c-0.019531-0.69531 0.42188-1.3164 1.0859-1.5273l4.7969-1.5352h-0.003906c1.9688-2.1836 3.6914-4.582 5.1289-7.1484 1.2812-2.3359 2.3242-4.7969 3.1094-7.3438l-1.9688-6.1133v-0.003906c-0.24609-0.76563 0.12891-1.5938 0.86719-1.9141l2.9766-1.2812c0.32812-3.1484 0.38281-6.3203 0.16797-9.4805-3.6016 1.9062-11.477 6.6836-17.137 14.594l0.96484 4.2422v0.003906c0.17578 0.77344-0.26172 1.5586-1.0117 1.8203zm11.898 12.547z"/>
  <path d="m62.414 69.43c-0.55469 0.003906-1.0664-0.28906-1.3477-0.76563-0.28125-0.48047-0.28906-1.0703-0.019531-1.5547l19.852-35.805c0.41797-0.75781 1.3672-1.0312 2.1211-0.61328 0.75781 0.41797 1.0312 1.3711 0.61328 2.125l-19.852 35.809c-0.27734 0.5-0.80078 0.80859-1.3672 0.80469z"/>
 </g>
</svg>
