<?xml version="1.0" encoding="UTF-8"?>
<svg width="100pt" height="100pt" version="1.1" viewBox="0 0 100 100" xmlns="http://www.w3.org/2000/svg">
 <path d="m68.051 32.547c0.11719 0.19922 0.050781 0.45312-0.14844 0.56641-0.19922 0.11719-0.45312 0.050781-0.56641-0.14844l-4.1328-7.0352c-0.11719-0.19922-0.050781-0.45313 0.14844-0.56641 0.19922-0.11719 0.45313-0.050781 0.56641 0.14844zm-18.59 54.398c-0.22656-0.023437-0.39453-0.23047-0.36719-0.45703 0.023438-0.22656 0.23047-0.39453 0.45703-0.36719l24.699 2.7344c0.22656 0.023437 0.39453 0.23047 0.36719 0.45703-0.023438 0.22656-0.23047 0.39453-0.45703 0.36719zm-34.738-77.605-0.47266 0.48438c-0.23438 0.24219-0.60547 0.26562-0.87109 0.070312l-0.17969-0.12891 26.504 55.836c0.027344 0.054688 0.042969 0.11328 0.054687 0.16797 0.28125 1.5977 0.11719 2.6797-0.60156 3.6953-0.66797 0.94531-1.793 1.75-3.5 2.8594-1.5898 1.0352-1.5625 1.7148-1.5039 3.1719l0.007812 0.14453c0.089844 2.2109-0.58203 2.8047-1.8906 3.957-0.074219 0.066406 0.16797-0.14844-0.23828 0.21484-0.73828 0.65625-1.3242 1.8711-1.7188 3.2734-0.44141 1.5742-0.62109 3.3555-0.49219 4.8633 0.03125 0.36719-0.24219 0.6875-0.60937 0.71875-0.32813 0.027343-0.62109-0.1875-0.69922-0.49609l-2.5547-8.1641-3.4883-10.422-14.465-34.965-6.2227-10.195c-0.03125-0.054687-0.054688-0.10938-0.074219-0.16406-0.29297-0.90234-0.31641-1.9727-0.097656-3.1523 0.21875-1.1836 0.67969-2.4883 1.3516-3.8477 0.25391-0.51953 0.85156-0.73047 1.457-0.94531 0.36328-0.12891 0.72656-0.25781 0.77344-0.33203 0.058594-0.097656-0.003906-0.40234-0.070312-0.71094-0.13281-0.61328-0.26562-1.2344 0.16797-1.8281 0.78906-1.0898 1.6875-2.1836 2.6758-3.25 0.95312-1.0234 1.9922-2.0195 3.0977-2.957 0.24609-0.20703 0.59375-0.20703 0.83594-0.019531l1.7852 1.2773 0.73047-0.75c0.035157-0.035156 0.074219-0.070313 0.11328-0.097656l0.011718-0.011719 0.039063-0.019531 0.003906-0.003907 0.046875-0.023437 0.003906-0.003906 0.011719-0.003907c0.12109-0.050781 0.25781-0.066406 0.39453-0.039062l45.379 9.5391c0.007812 0 0.015625 0.003907 0.027343 0.003907 0.98047 0.21094 1.7305 0.57422 2.4375 1.2031 0.67188 0.59375 1.2773 1.4102 1.9922 2.5508l0.011719 0.019531 11.891 20.242 21.652 31.988c0.36719 0.42969 0.57812 0.90234 0.64844 1.3594 0.066406 0.4375 0.003906 0.86719-0.17969 1.2422-0.1875 0.38281-0.5 0.69922-0.92188 0.90234-0.40234 0.19531-0.90625 0.28516-1.4961 0.22266l-48.523-5.1289c-0.054687-0.003906-0.10938-0.015625-0.16406-0.03125l-0.20703-0.066406c-3.5-1.1367-4.3398-1.4062-6.2422-5.4688l-26.633-56.777zm43.984 76.254c-0.36719-0.039062-0.62891-0.36719-0.58984-0.73438 0.039062-0.36719 0.36719-0.62891 0.73437-0.58984l24.699 2.7344c0.36719 0.039063 0.62891 0.36719 0.58984 0.73438-0.039063 0.36719-0.36719 0.62891-0.73438 0.58984zm-21.895-1.5117c-0.36719-0.035156-0.63281-0.35938-0.59766-0.72656 0.035156-0.36719 0.35938-0.63281 0.72656-0.59766l9.2344 0.92969c0.36719 0.035156 0.63281 0.35938 0.59766 0.72656-0.035157 0.36719-0.35938 0.63281-0.72656 0.59766zm-24.34-42.156 11.238 27.172c0.003906 0.015625 0.011718 0.027344 0.015624 0.042969l3.5 10.453 0.003907 0.011719 1.4609 4.6602c0.089844-0.52734 0.20703-1.0469 0.34766-1.5469 0.45703-1.6289 1.1758-3.0703 2.1133-3.9062 0.23828-0.21484 0.011718-0.007812 0.24219-0.21484 0.99609-0.87891 1.5078-1.332 1.4414-2.9102l-0.007813-0.14453c-0.082031-1.9688-0.12109-2.8906 2.1055-4.3359 1.5781-1.0234 2.6016-1.75 3.1406-2.5078 0.47656-0.67188 0.57812-1.4414 0.38672-2.6133l-27.184-57.273c-0.82031 0.73438-1.6016 1.4961-2.3281 2.2812-0.94922 1.0195-1.8125 2.0703-2.5742 3.125-0.082031 0.11328-0.011719 0.44531 0.058594 0.77344 0.12109 0.5625 0.23828 1.1211-0.089844 1.668-0.29297 0.48828-0.88672 0.69922-1.4727 0.90625-0.34766 0.125-0.69141 0.24609-0.70703 0.27734-0.61719 1.25-1.0391 2.4375-1.2344 3.5-0.17578 0.94531-0.17188 1.7773 0.035156 2.4531l16.938 27.75c0.19141 0.3125 0.09375 0.72266-0.22266 0.91406-0.3125 0.19141-0.72266 0.09375-0.91406-0.22266l-6.293-10.309zm84.336 36.133c0.28516-0.23438 0.70312-0.19141 0.93359 0.089844 0.23437 0.28516 0.19141 0.70312-0.089844 0.93359-3.418 2.8086-5.4688 4.7852-6.9688 6.7617-1.4883 1.9648-2.4453 3.9492-3.668 6.7734-0.48047 1.3164-1.3555 2.5977-2.418 3.4883-1.0117 0.84766-2.2031 1.3594-3.418 1.2656-4.9062-0.38672-18.25-1.7656-29.98-3.0938-9.293-1.0547-17.578-2.0781-19.867-2.5586-0.68359-0.14453-1.0391-0.5625-1.1562-1.082-0.058593-0.25391-0.046875-0.52344 0.011719-0.78516 0.054688-0.23828 0.15625-0.47656 0.28516-0.69531 0.37891-0.63672 1.0547-1.1289 1.7617-1.0469 5.7188 0.66406 17.621 2.0117 28.258 3.207 10.949 1.2305 20.594 2.3086 20.863 2.3203 1.8867 0.09375 2.9922-0.25781 3.6406-0.66797 0.55078-0.34766 0.73438-0.71875 0.78906-0.84375 0.003906-0.007812 0.007813-0.019531 0.011719-0.027344 1.2656-2.9258 2.2617-4.9883 3.8281-7.0508 1.5625-2.0625 3.6797-4.1016 7.1875-6.9844zm-12.688 16.684c-0.73828 0.17969-1.668 0.27734-2.8281 0.22266-0.31641-0.015625-9.9883-1.0938-20.949-2.3242-10.73-1.207-22.656-2.5586-28.262-3.207-0.14062-0.015625-0.33203 0.17188-0.47266 0.40625-0.058594 0.10156-0.10547 0.20703-0.12891 0.3125-0.019531 0.078125-0.023438 0.14844-0.011719 0.19922 0.007812 0.027344 0.046875 0.054688 0.13281 0.074219 2.2383 0.47266 10.48 1.4883 19.742 2.5391 11.699 1.3281 25.023 2.7031 29.941 3.0898 0.83984 0.066406 1.6992-0.32031 2.457-0.95703 0.12891-0.10938 0.25391-0.22266 0.37891-0.34766zm-36.879-21.641c-0.22656-0.023437-0.39453-0.22656-0.37109-0.45703 0.023437-0.22656 0.22656-0.39453 0.45703-0.37109l48.551 5.1328c0.22656 0.023438 0.39453 0.22656 0.37109 0.45703-0.023438 0.22656-0.22656 0.39453-0.45703 0.37109zm12.914-54.73-44.074-9.2656 26.477 56.441c1.6562 3.5312 2.3906 3.7695 5.4492 4.7656l0.14453 0.046875 48.477 5.125c0.32812 0.035156 0.58984-0.003906 0.78516-0.097656 0.14453-0.070313 0.24609-0.17188 0.30469-0.29297 0.0625-0.12891 0.082031-0.28516 0.054688-0.45703-0.035157-0.23047-0.15234-0.47656-0.35547-0.71094-0.023438-0.027343-0.046875-0.058593-0.066407-0.089843l-21.676-32.023c-0.007812-0.011719-0.015625-0.023438-0.023437-0.035156l-11.887-20.238c-0.65234-1.0391-1.1875-1.7695-1.7461-2.2656-0.52344-0.46484-1.0898-0.73438-1.8359-0.89453l-0.023438-0.003906zm-19.938 48.5c-0.039062-0.22656 0.11328-0.44141 0.33984-0.48047 0.22656-0.039063 0.44141 0.11328 0.48047 0.33984 0.26953 1.5273 0.11719 2.5547-0.55859 3.5078-0.64453 0.91016-1.75 1.6992-3.4297 2.793-1.7109 1.1133-1.6797 1.8359-1.6172 3.3906l0.007812 0.14453c0.085938 2.0898-0.55859 2.6602-1.8086 3.7617-0.019531 0.015625 0.027344-0.023437-0.23828 0.21484-0.49609 0.44141-0.92188 1.1133-1.2734 1.9219-0.39453 0.90234-0.68359 1.9609-0.86328 3.0469-0.035156 0.22656-0.25 0.37891-0.47656 0.34375-0.22656-0.035157-0.37891-0.25-0.34375-0.47656 0.1875-1.1523 0.5-2.2812 0.92188-3.2461 0.39844-0.91406 0.89453-1.6875 1.4844-2.2109 0.10156-0.089844 0.070312-0.058594 0.24219-0.21484 1.0547-0.92969 1.5977-1.4102 1.5273-3.1094l-0.007812-0.14453c-0.078125-1.875-0.11328-2.75 1.9922-4.1172 1.6016-1.0391 2.6445-1.7812 3.207-2.5742 0.53125-0.75 0.64062-1.5938 0.41406-2.8867z"/>
</svg>
