<?xml version="1.0" encoding="UTF-8"?>
<svg width="100pt" height="100pt" version="1.1" viewBox="0 0 100 100" xmlns="http://www.w3.org/2000/svg">
 <g>
  <path d="m89.215 63.402c-0.53516-1.4609-1.4414-2.7383-2.1992-4.0898-1.5195-2.707-2.9258-5.4766-4.5117-8.1406-2.0703-3.4922-4.0352-7.0469-6.0625-10.562-0.52734-0.91797-1.0586-1.8398-1.6016-2.7773-0.40625 0.18359-0.71484 0.32812-1.0273 0.45312-1.0273 0.41797-2.0664 0.57812-2.9297-0.29297-0.90234-0.91406-1.5508-2.0352-2.0586-3.2031-0.43359-0.99609-0.085938-1.6328 0.92578-2.0703 0.56641-0.24609 1.1094-0.53516 1.6797-0.80859-0.011719-0.17969 0.003906-0.24609-0.019532-0.28906-1.8438-3.4453-3.6758-6.8945-5.5352-10.328-1.4766-2.7227-2.9766-5.4297-4.4766-8.1367-1.2852-2.3203-2.5977-4.6289-3.8789-6.9492-0.23828-0.43359-0.5625-0.59766-1.0352-0.57812-0.625 0.023438-1.2266 0.050782-1.8359 0.28516-1.7695 0.67969-3.5547 1.3125-5.3555 1.9062-2.707 0.89453-5.4531 1.6758-8.1406 2.6367-2.3945 0.85547-4.8086 1.6406-7.2109 2.4688-3.0508 1.0547-6.1445 1.9805-9.1797 3.0742-2.2891 0.82422-4.6367 1.4922-6.9062 2.3867-0.69531 0.27344-1.4219 0.53516-2.1953 0.64062-0.94531 0.12891-1.5547 0.87109-2.1172 1.582-0.25391 0.32031-0.26562 0.67188-0.058594 1.1055 1.8906 3.8945 3.7461 7.8047 5.6016 11.719 1.6992 3.5859 3.3594 7.1914 5.0664 10.773 3.2148 6.7422 6.4062 13.492 9.6797 20.211 3.2109 6.5859 6.3281 13.219 9.7305 19.73-1.1172 2.9375-2.5625 5.8906-0.26562 8.9766-1.0742 0.19922-1.5-0.039062-1.7852-0.87891-0.89844-2.6016-0.31641-5.0312 0.82422-7.3945-1.7539-4.1445-3.6992-8.1992-5.6758-12.43-1.3984 2.5312-2.1953 5.0234-2.2188 7.7578-0.011718 1.4336-0.011718 2.7969 0.80469 4.1016 0.94531 1.5078 1.6953 3.1406 2.5547 4.7031 0.87109 1.5938 1.7305 3.1953 2.9141 4.5938 0.30078 0.35156 0.59375 0.73438 1.0859 0.75781 1.3555 0.0625 2.6953 0.17969 4.0234-0.36719 8.3164-3.418 16.535-7.0547 24.785-10.621 4.7617-2.0625 9.5195-4.1328 14.277-6.2031 0.91016-0.39453 1.0664-0.75391 0.68359-1.6602-0.3125-0.73047-0.67187-1.4414-1.0469-2.1406-0.3125-0.58594-0.33984-1.3086 0.0625-1.6641 0.64062-0.5625 0.68359-1.2578 0.89062-1.9453 0.10156-0.33203-0.019531-0.78125 0.37891-0.99219 1.207-0.64063 1.5391-1.8008 1.7578-3.0078 0.24609-0.10547 0.44922-0.19922 0.65625-0.28516 1.4336-0.60156 1.4688-0.61328 0.94531-2.0469zm-45.801 15.586c-0.82812-1.0234-0.78516-1.9336 0.046876-3.3516 0.53906-0.91797 1.2109-1.6992 2.1523-2.3398-7.5391-15.754-15.051-31.449-22.602-47.223-0.50781 0.19922-0.89062 0.39062-1.2969 0.49609-1.6367 0.43359-3.7891-0.91406-4.1523-2.582-0.37109-1.6953 1.2305-3.3008 3.0195-3.1289 1.1406 0.10547 1.8047 0.68359 2.2461 1.6641 0.32812 0.72266 0.71094 1.418 1.1602 2.2969 9.9805-3.75 20.094-7.0156 30.164-10.527-0.27344-0.83984-0.57422-1.6875-0.82422-2.5508-0.25781-0.87891 0.25781-2.0625 1.0273-2.4688 0.66016-0.34766 1.9062-0.042969 2.4844 0.62109 0.35547 0.41016 0.64453 0.86328 0.83984 1.375 0.48047 1.2812 0.19531 2.1953-0.92578 2.9492-0.25781 0.17188-0.52734 0.32031-0.75391 0.46094 7.8203 15.051 16.113 29.789 24.203 44.617 0.4375 0.22266 0.80078 0.003906 1.1797-0.085937 2.4219-0.5625 3.6211 0.61719 3.9336 2.8516 0.11719 0.84766-0.32422 1.5547-1.0039 1.9453-0.69531 0.40234-1.5273 0.375-2.2891 0.027344-0.67188-0.30859-1.1211-0.85156-1.4961-1.4688-0.30859-0.50391-0.62109-1.0078-0.95703-1.5508-10.902 4.2969-21.691 8.7695-32.684 12.914 0.36328 1.0039 0.85938 1.9414 0.98047 2.9961 0.10156 0.89062-0.71094 2.5664-1.4336 2.8867-1.3164 0.58203-2.0352 0.38672-3.0195-0.82422zm26.016-9.9062c-0.40625 0.36328-0.86719 0.38672-1.2539-0.27344 0.41406-0.32812 0.58594-1.0781 1.2734-0.67969 0.39062 0.22656 0.25391 0.71094-0.019531 0.95312zm-4.3945 2.2148c-0.80078 0.10547-0.80078 0.10547-1.2266-0.23828 0.074218-0.47266 0.32422-0.8125 0.82812-0.69922 0.47266 0.10547 0.51562 0.51562 0.39844 0.9375zm-5.0625 1.9453c-0.30078-0.039063-0.50391-0.16406-0.61328-0.47656 0.21094-0.44922 0.45312-0.86719 1.1445-0.68359 0.27734 0.66406-0.13281 0.91016-0.53125 1.1602zm25.207-5.7305c-0.39063 0.007812-0.78516 0.125-1.1523 0.25781-1.9805 0.70312-3.8555 1.6367-5.7031 2.6211-1.4023 0.74609-2.9375 1.1797-4.4258 1.7266-3.5156 1.2891-6.957 2.7773-10.512 3.9375-4.0859 1.3359-8.0195 3.0234-11.895 4.8242-2.2773 1.0586-4.3906 2.4727-6.5781 3.7305 3.5195-1.2578 6.5-3.5859 9.9922-4.9258 3.1211-1.1992 6.1914-2.5156 9.4258-3.4219 1.9922-0.55859 3.8281-1.5703 5.8281-2.1328 0.074219-0.023437 0.16016-0.023437 0.32031 0.13672-1.1914 0.55469-2.3711 1.1484-3.5859 1.6562-4.8164 2.0117-9.7227 3.8086-14.449 6.0234-2.6953 1.2656-5.4609 2.4141-7.9375 4.2656 0.36719-0.16797 0.68359-0.28516 0.96875-0.45313 5.332-3.0703 11.055-5.2773 16.73-7.5938 7.1719-2.9258 14.312-5.9141 21.461-8.8828 0.27734-0.11328 0.52734-0.28906 0.79297-0.4375 0.30469 0.76562 0.21875 0.94141-0.57813 1.207-1.8828 0.63281-3.8242 1.0742-5.6094 1.9883 2.0391-0.63672 4.0508-1.3867 6.1523-1.9102 0.019531 0.4375-0.25781 0.46484-0.44922 0.52344-3.8164 1.1875-7.3984 3.0391-11.258 4.1016-7.3125 2.0156-13.922 5.6406-20.664 8.9531-2.5859 1.2695-5.1719 2.5703-7.5859 4.1875 0.80469-0.39062 1.6133-0.77734 2.4141-1.1758 5.6172-2.8008 11.215-5.6406 16.855-8.3906 3.2188-1.5703 6.7227-2.4062 10.098-3.5664 0.0625-0.023438 0.14844 0.03125 0.36328 0.082031-3.2656 1.3359-6.4141 2.625-9.5625 3.9141 4.6406-1.6133 9.1133-3.6719 13.883-4.9336-11.402 4.9375-22.996 9.4688-33.82 15.66 12.469-6.7617 25.836-11.512 38.695-17.449 0.22656 0.47266-0.14453 0.90625 0.019531 1.2578-2.8203 1.9648-6.5195 1.7344-9.1289 4.0234-3.2617 0.80469-6.2305 2.3398-9.3125 3.6016-3.1367 1.2812-6.0312 3-9.0977 4.3984-3.0938 1.4141-6.2734 2.6367-9.1875 4.4297 12.105-5.6406 24.289-11.086 36.996-15.566 0.48438 0.21875 0.23828 0.75391 0.27734 1.2461-1.3711 0.83984-3.0117 0.95312-4.4531 1.582-0.50391 0.21875-1.0039 0.43359-1.5039 0.65234-1.4492 0.96875-3.1094 1.4961-4.6797 2.2109-2.9727 1.3555-5.9141 2.8008-9.0156 3.8242-2.9141 0.96094-5.7812 2.0234-8.5781 3.2773-1.6289 0.73047-3.2305 1.5195-4.8242 2.3203 3.7656-1.4453 7.3477-3.3359 11.348-4.6836-0.39062 0.50391-0.82422 0.57031-1.1875 0.73828-4.0117 1.8164-8.0312 3.6211-12.047 5.4375-1.1016 0.49609-2.3086 0.75-3.2891 1.5273-0.28125 0.22266-0.74219 0.25781-1.1328 0.29297-0.36719 0.035156-0.67578-0.10938-0.60547-0.58203 1.7422-0.91797 3.5508-1.7109 5.3281-2.5586 7.3594-3.4922 14.82-6.7305 22.441-9.6094 2.0625-0.78125 4.0898-1.668 6.2422-2.1953 0.50391-0.21875 1.0039-0.43359 1.5078-0.65234 0.3125-0.23047 0.62109-0.45703 1.0469-0.76953-0.91406 0.35938-1.6875 0.69531-2.4805 0.97656-6.8711 2.4297-13.641 5.1367-20.344 7.9922-3.9961 1.7031-7.8008 3.8281-11.805 5.5195-0.71094 0.30078-1.4297 0.65625-1.9414 1.2852-0.85547 0.10547-0.76172-0.69141-1.0273-1.1172-0.14063-0.21875-0.11328-0.54297-0.17578-0.89453 1.375-0.78516 2.7695-1.582 4.1602-2.375-1.0703 0.22656-1.9023 0.94922-2.8594 1.4102-0.39844 0.19531-0.78125 0.42578-1.2656 0.6875-0.050781-0.8125 0.019532-1.4609 0.5625-1.9844-0.27344 0.054688-0.33203-0.12109-0.25391-0.32812 0.38672-1.0156 0.47266-2.168 1.3125-2.9805 0.75-1.4844 2.1719-2.0742 3.5781-2.6797 7.3555-3.1562 14.906-5.8125 22.273-8.9141 4.9258-2.0742 10.004-3.7852 14.789-6.1914 0.41016-0.20703 0.85156-0.42969 1.3516-0.42578 0 1.1094-0.19141 1.2695-1.2539 1.293zm-6.8867 5.8828c-0.59375 0.34766-0.98438 0.55859-1.6758 0.54688 0.56641-0.34766 0.98437-0.48047 1.6758-0.54688z"/>
  <path d="m47.016 87.59c-0.019531 0.011718-0.039063 0.023437-0.0625 0.035156 0.023437-0.007812 0.050781-0.015625 0.078125-0.019531z"/>
  <path d="m43.402 87.73c-0.007813 0.003906-0.007813 0.011719-0.011719 0.011719 0.011719-0.003907 0.019531 0 0.03125-0.003907z"/>
  <path d="m28.859 56.066c-1.0586-2.168-2.1055-4.3398-3.1602-6.5078-0.80859-1.6523-1.625-3.3008-2.4766-5.0234-0.35156 0.3125-0.44922 0.60547-0.5625 0.89453-1.0273 2.6797-1.4727 5.4727-1.6211 8.3203-0.074218 1.4062 0.12109 2.7383 0.85547 4.0078 0.80859 1.3984 1.4531 2.8906 2.1875 4.332 0.50781 0.99609 1.0352 1.9844 1.6562 3.1719 0.21484-0.64062 0.34375-1.0664 0.49219-1.4805 0.80859-2.2656 1.3242-4.6484 2.6914-6.6875 0.25-0.37891 0.10156-0.6875-0.0625-1.0273zm-4.3711 1.2188c-0.65234-0.023437-0.84375-0.51953-0.8125-1.0664 0.03125-0.63281 0.15625-1.3594 0.92969-1.3945 0.74219-0.03125 0.85156 0.67578 0.96484 1.1133-0.019531 0.86719-0.28906 1.375-1.082 1.3477z"/>
  <path d="m21.859 41.738c-0.99219-2.0352-1.9961-4.0625-2.9727-6.1055-0.75391-1.5742-1.4727-3.1641-2.2266-4.7891-0.4375 0.39453-0.58203 0.85547-0.80469 1.2773-1.0156 1.9258-1.3086 4.0508-1.5078 6.1602-0.14453 1.5625-0.3125 3.207 0.36719 4.707 0.94531 2.0898 1.9727 4.1406 2.9883 6.1953 0.37891 0.76562 0.67969 1.582 1.2461 2.3438 0.0625-0.20703 0.09375-0.31641 0.11719-0.42578 0.72656-2.7656 1.2852-5.5938 2.8828-8.0391 0.34766-0.51172 0.12109-0.89453-0.089844-1.3242zm-4.0664 1.4414c-0.98047 0.17969-1.0469-0.53516-1.1523-1.1758-0.12891-0.76172 0.23047-1.2734 0.95312-1.4609 0.4375-0.11328 0.73047 0.14844 0.8125 0.625 0.13672 0.78125-0.16797 1.418-0.61328 2.0117z"/>
  <path d="m35.332 69.594c-1.0625-2.2305-2.1133-4.4648-3.1758-6.6953-0.62891-1.3242-1.2734-2.6367-1.9062-3.9453-0.30469 0.10547-0.35547 0.30859-0.45703 0.47266-1.3008 2.1289-1.7305 4.5234-2.207 6.9258-0.3125 1.5586 0.035156 2.8828 0.77344 4.2227 0.92969 1.6875 1.7695 3.4258 2.6523 5.1406 0.51172 1 1.0195 2.0039 1.6484 3.2305 0.21875-1.6562 0.58984-3.0117 1.0469-4.3477 0.46094-1.3477 1.1367-2.5977 1.7344-3.8828 0.20703-0.43359 0.0625-0.75391-0.10938-1.1211zm-3.168-0.88281c-0.17187 0.44141-0.40234 0.85937-0.60156 1.2773-0.76953 0.16016-1.1211-0.29297-1.2227-0.88672-0.12109-0.69922 0.074218-1.3633 0.72266-1.7773 0.29297-0.1875 0.55469 0.042969 0.74609 0.23828 0.3125 0.3125 0.53516 0.69531 0.35547 1.1484z"/>
  <path d="m15.375 28.094c-0.69141-1.3008-1.3984-2.5977-2.0703-3.9062-0.34766-0.67578-0.46484-1.457-0.98828-2.1328-2.5234 2.8555-2.4219 12.953 0.12891 15.895 0.035157-0.078125 0.085938-0.14453 0.10547-0.22266 0.67188-2.9102 1.3242-5.8242 2.8828-8.4297 0.25-0.42969 0.15234-0.80859-0.058594-1.2031z"/>
  <path d="m69.684 34.719c0.60547 1.0977 1.0625 2.3203 2.0078 3.0469 1.3516 0.085937 2.3398-1.2383 3.7188-0.55078 0.46875-0.28516 0.40234-0.71094 0.24609-1.0703-0.51953-1.1641-1.0625-2.3164-1.7617-3.3867-0.22656-0.34766-0.53906-0.66016-0.98047-0.46094-0.90234 0.40234-1.8008 0.82812-2.6602 1.3164-0.38281 0.21484-0.83594 0.62109-0.57031 1.1055z"/>
  <path d="m79.191 59.77c-7.8359-15.129-16.273-29.805-24.344-44.883-10.211 3.5-20.406 6.9258-30.738 10.648 7.2539 15.906 15.258 31.176 22.328 47.133 11.008-4.332 21.867-8.6094 32.754-12.898z"/>
  <path d="m20.145 22.039c-0.62891-0.10547-1.0742 0.17578-1.4766 0.64063-0.38281 0.44531-0.3125 0.90625-0.078125 1.3398 0.94141 1.7383 2.0547 1.957 4.0117 1.1016-0.12891-0.44141-0.21094-0.83203-0.35547-1.1953-0.39062-0.96484-1.0039-1.7031-2.1016-1.8867z"/>
  <path d="m44.902 78.766c0.85156 0.22656 1.7734-0.29688 1.9766-1.0742 0.32422-1.25-0.34766-2.2188-0.82812-3.332-1.1211 0.59766-1.7305 1.4844-2.1328 2.4961-0.35547 0.89844 0.085937 1.6719 0.98438 1.9102z"/>
  <path d="m83.93 62.957c0.54687-0.54297 0.54297-1.4453-0.003907-2.082-0.72656-0.84766-1.7461-0.92578-2.8789-0.15234 0.30078 0.66406 0.52344 1.3984 1.0625 1.9492 0.61328 0.62109 1.3945 0.71484 1.8203 0.28516z"/>
  <path d="m55.43 13.977c0.27344-0.14844 0.48828-0.23437 0.66406-0.36719 0.54688-0.42578 1.2656-0.78125 0.90234-1.6797-0.44531-1.1094-1.3359-1.6914-2.2578-1.5273-0.42578 0.074218-0.77734 0.3125-0.57031 0.73047 0.45703 0.90234 0.63672 1.9297 1.2617 2.8438z"/>
  <path d="m44.379 87.258c0.039063-0.03125 0.085938-0.058593 0.125-0.089843-0.046875 0.023437-0.09375 0.050781-0.14062 0.074219-0.027343 0.019531-0.050781 0.039062-0.074219 0.0625 0.027344-0.019532 0.058594-0.035157 0.089844-0.046876z"/>
  <path d="m44.504 87.168c1.5781-0.81641 3.1562-1.6328 4.7383-2.4453-1.7031 0.58203-3.3086 1.3516-4.7383 2.4453z"/>
  <path d="m47.086 87.559c0.17187-0.078125 0.35156-0.15625 0.58594-0.26172-0.33203-0.054687-0.44141 0.13672-0.58594 0.26172z"/>
  <path d="m47.02 87.59c-0.003906 0 0.015625 0.015625 0.015625 0.015625 0.019532-0.011719 0.035156-0.03125 0.050782-0.046875-0.023438 0.011718-0.046876 0.019531-0.066407 0.03125z"/>
  <path d="m43.465 87.719c0.32422-0.039062 0.57422-0.21875 0.82031-0.41406-0.27344 0.13672-0.54297 0.27344-0.82031 0.41406z"/>
  <path d="m43.406 87.73c-0.003906 0 0.019531 0.011719 0.019531 0.011719 0.015625-0.007813 0.027344-0.015626 0.042969-0.023438-0.023438 0.003906-0.042969 0.011719-0.0625 0.011719z"/>
 </g>
</svg>
