<?xml version="1.0" encoding="UTF-8"?>
<svg width="100pt" height="100pt" version="1.1" viewBox="0 0 100 100" xmlns="http://www.w3.org/2000/svg">
 <g>
  <path d="m19.695 87.879h-4.543c-0.83594 0-1.5156 0.67969-1.5156 1.5156 0 0.83594 0.67969 1.5156 1.5156 1.5156h4.5469-0.003907c0.83984 0 1.5156-0.67969 1.5156-1.5156 0-0.83594-0.67578-1.5156-1.5156-1.5156z"/>
  <path d="m92.426 4.5469h-63.91c-0.64062-1.8125-2.3516-3.0273-4.2734-3.0312h-12.121c-2.5117 0-4.5469 2.0352-4.5469 4.5469v87.875c0 2.5117 2.0352 4.5469 4.5469 4.5469h12.121c1.9219-0.003906 3.6328-1.2188 4.2734-3.0312h63.91c0.39844 0 0.78516-0.16016 1.0703-0.44141 0.28516-0.28516 0.44141-0.67188 0.44141-1.0742v-87.875c0-0.40234-0.15625-0.78906-0.44141-1.0742-0.28516-0.28125-0.67188-0.44141-1.0703-0.44141zm-63.637 31.816h28.242l7.2734 6.0625-7.2734 6.0625-28.242-0.003906zm-3.0312 13.637h-15.152v-15.152h15.152zm-15.152 3.0312h15.152v28.785h-15.152zm18.184-1.5156h28.785c0.35547 0 0.69922-0.125 0.97266-0.34766l9.0898-7.5742v-0.003906c0.34766-0.28516 0.54688-0.71484 0.54688-1.1641 0-0.45312-0.19922-0.87891-0.54688-1.168l-9.0898-7.5742c-0.27344-0.22656-0.61719-0.35156-0.97266-0.35156h-28.785v-25.758h43.348l18.773 18.957v33.332l-18.848 20.441h-43.273zm62.121 12.816v15.973h-14.727zm0-42.105-14.5-14.652h14.5zm-78.789-17.68h12.121c0.40234 0 0.78906 0.16016 1.0703 0.44141 0.28516 0.28516 0.44531 0.67188 0.44531 1.0742v25.754h-15.152v-25.754c0-0.83984 0.67969-1.5156 1.5156-1.5156zm12.121 90.91-12.121-0.003906c-0.83594 0-1.5156-0.67578-1.5156-1.5156v-9.0898h15.152v9.0898c0 0.40234-0.16016 0.78906-0.44531 1.0742-0.28125 0.28125-0.66797 0.44141-1.0703 0.44141zm4.5469-3.0312v-9.0938h62.121v3.0312h-10.605c-0.83984 0-1.5156 0.67969-1.5156 1.5156 0 0.83594 0.67578 1.5156 1.5156 1.5156h10.605v3.0312z"/>
  <path d="m74.242 86.363h-36.363c-0.83594 0-1.5156 0.67969-1.5156 1.5156 0 0.83594 0.67969 1.5156 1.5156 1.5156h36.363c0.83594 0 1.5156-0.67969 1.5156-1.5156 0-0.83594-0.67969-1.5156-1.5156-1.5156z"/>
  <path d="m53.031 39.395c-0.83594 0-1.5156 0.67969-1.5156 1.5156v3.0312-0.003906c0 0.83984 0.67969 1.5156 1.5156 1.5156s1.5156-0.67578 1.5156-1.5156v-3.0273c0-0.40234-0.16016-0.78906-0.44531-1.0742-0.28516-0.28125-0.66797-0.44141-1.0703-0.44141z"/>
 </g>
</svg>
